<svg width="14" height="14" viewBox="0 0 14 14" fill="none" xmlns="http://www.w3.org/2000/svg">
<g clip-path="url(#clip0_7437_36060)">
<path d="M7.00017 0.583496C5.73107 0.583496 4.49047 0.959827 3.43526 1.6649C2.38004 2.36997 1.5576 3.37212 1.07194 4.54461C0.586276 5.7171 0.459205 7.00728 0.706793 8.25199C0.954382 9.4967 1.56551 10.64 2.4629 11.5374C3.36028 12.4348 4.50362 13.0459 5.74834 13.2935C6.99305 13.5411 8.28323 13.4141 9.45572 12.9284C10.6282 12.4427 11.6304 11.6203 12.3354 10.5651C13.0405 9.50986 13.4168 8.26926 13.4168 7.00016C13.4148 5.29897 12.7381 3.66803 11.5352 2.46511C10.3323 1.26219 8.70135 0.585503 7.00017 0.583496ZM9.91683 7.5835H7.5835V9.91683C7.5835 10.0715 7.52204 10.2199 7.41264 10.3293C7.30325 10.4387 7.15487 10.5002 7.00017 10.5002C6.84546 10.5002 6.69708 10.4387 6.58769 10.3293C6.47829 10.2199 6.41683 10.0715 6.41683 9.91683V7.5835H4.0835C3.92879 7.5835 3.78042 7.52204 3.67102 7.41264C3.56162 7.30325 3.50017 7.15487 3.50017 7.00016C3.50017 6.84545 3.56162 6.69708 3.67102 6.58768C3.78042 6.47829 3.92879 6.41683 4.0835 6.41683H6.41683V4.0835C6.41683 3.92879 6.47829 3.78041 6.58769 3.67102C6.69708 3.56162 6.84546 3.50016 7.00017 3.50016C7.15487 3.50016 7.30325 3.56162 7.41264 3.67102C7.52204 3.78041 7.5835 3.92879 7.5835 4.0835V6.41683H9.91683C10.0715 6.41683 10.2199 6.47829 10.3293 6.58768C10.4387 6.69708 10.5002 6.84545 10.5002 7.00016C10.5002 7.15487 10.4387 7.30325 10.3293 7.41264C10.2199 7.52204 10.0715 7.5835 9.91683 7.5835Z" fill="#E1E1E1"/>
</g>
<defs>
<clipPath id="clip0_7437_36060">
<rect width="14" height="14" fill="white"/>
</clipPath>
</defs>
</svg>
