<svg width="20" height="20" viewBox="0 0 20 20" fill="none" xmlns="http://www.w3.org/2000/svg">
<g clip-path="url(#clip0_2414_33511)">
<path d="M5.39636 10.583L4.88406 9.22555L4.36707 10.583H5.39636Z" fill="#858585"/>
<mask id="mask0_2414_33511" style="mask-type:luminance" maskUnits="userSpaceOnUse" x="0" y="0" width="20" height="20">
<path d="M0 1.90735e-06H20V20H0V1.90735e-06Z" fill="white"/>
</mask>
<g mask="url(#mask0_2414_33511)">
<path d="M15.4568 9.34578H16.9312V10.5177H15.4568V11.585H17.4766C17.5848 11.0735 17.6423 10.5434 17.6423 10.0002C17.6423 9.40832 17.5746 8.83199 17.4467 8.27848H15.4568V9.34578Z" fill="#858585"/>
<path d="M13.1212 9.95219C13.1212 11.6277 12.078 12.7979 10.5845 12.7979C9.01531 12.7979 7.73871 11.5213 7.73871 9.95219C7.73871 8.38305 9.01531 7.10645 10.5845 7.10645C11.1546 7.10645 11.7049 7.27461 12.1759 7.59277L12.6614 7.92078L12.0055 8.89184L11.52 8.56383C11.2434 8.37707 10.9199 8.27832 10.5845 8.27832C9.66148 8.27832 8.91059 9.02922 8.91059 9.95219C8.91059 10.8752 9.66148 11.6261 10.5845 11.6261C11.3406 11.6261 11.7305 11.1181 11.878 10.5381H10.5973V9.36625H13.1212V9.95219ZM18.8281 10C18.8281 12.358 17.9098 14.575 16.2424 16.2424C14.575 17.9098 12.3581 18.8281 10 18.8281C7.64187 18.8281 5.425 17.9098 3.75758 16.2424C2.09012 14.575 1.17187 12.358 1.17187 10C1.17187 7.64192 2.09012 5.425 3.75758 3.75754C5.425 2.09016 7.64187 1.17188 10 1.17188C12.6632 1.17188 15.1341 2.35012 16.8023 4.37074H15.1629C13.802 3.12152 11.9886 2.35777 10 2.35777C5.78605 2.35777 2.35777 5.78606 2.35777 10C2.35777 10.6639 2.44305 11.3082 2.60289 11.9227L4.38734 7.23734L5.3859 7.23637L7.47578 12.7742H6.22324L5.83859 11.755H3.92074L3.53258 12.7742H2.8791C2.98359 13.0415 3.10309 13.3013 3.23598 13.5529L3.23582 13.5532C4.51703 15.9823 7.06812 17.6422 10 17.6422C13.2424 17.6422 16.0193 15.6123 17.1275 12.7566H14.2849V7.10645H17.0727C16.844 6.5493 16.5514 6.02496 16.2039 5.54262H18.7001V1.50051H17.5282V3.41867C16.7781 2.56199 15.8842 1.83352 14.8898 1.27508C13.4043 0.440901 11.7135 1.90735e-06 10 1.90735e-06C7.32891 1.90735e-06 4.8177 1.0402 2.92891 2.92891C1.0402 4.81766 0 7.32891 0 10C0 12.6711 1.0402 15.1823 2.92891 17.0711C4.8177 18.9598 7.32891 20 10 20C12.6711 20 15.1823 18.9598 17.0711 17.0711C18.9598 15.1823 20 12.6711 20 10H18.8281Z" fill="#858585"/>
</g>
</g>
<defs>
<clipPath id="clip0_2414_33511">
<rect width="20" height="20" fill="white"/>
</clipPath>
</defs>
</svg>
