<svg xmlns="http://www.w3.org/2000/svg" width="20" height="20" viewBox="0 0 20 20" fill="none">
<path fill-rule="evenodd" clip-rule="evenodd" d="M8.5 1.875H8.47225C7.44565 1.87499 6.63693 1.87499 5.98611 1.92817C5.32214 1.98242 4.76767 2.09511 4.26379 2.35185C3.44058 2.77129 2.77129 3.44058 2.35185 4.26379C2.09511 4.76767 1.98242 5.32214 1.92817 5.98611C1.87499 6.63693 1.87499 7.44565 1.875 8.47225V8.5V11.5V11.5277C1.87499 12.5543 1.87499 13.3631 1.92817 14.0139C1.98242 14.6778 2.09511 15.2323 2.35185 15.7362C2.77129 16.5594 3.44058 17.2287 4.26379 17.6482C4.76767 17.9049 5.32214 18.0176 5.98611 18.0718C6.63693 18.125 7.44564 18.125 8.47225 18.125H8.5H11.5H11.5277C12.5543 18.125 13.3631 18.125 14.0139 18.0718C14.6778 18.0176 15.2323 17.9049 15.7362 17.6482C16.5594 17.2287 17.2287 16.5594 17.6482 15.7362C17.9049 15.2323 18.0176 14.6778 18.0718 14.0139C18.125 13.3631 18.125 12.5543 18.125 11.5277V11.5V8.5V8.47225C18.125 7.44564 18.125 6.63693 18.0718 5.98611C18.0176 5.32214 17.9049 4.76767 17.6482 4.26379C17.2287 3.44058 16.5594 2.77129 15.7362 2.35185C15.2323 2.09511 14.6778 1.98242 14.0139 1.92817C13.3631 1.87499 12.5543 1.87499 11.5277 1.875H11.5H8.5ZM3.16927 13.8514C3.17079 13.8718 3.17238 13.8921 3.17402 13.9121C3.22195 14.4987 3.31362 14.8704 3.46561 15.1687C3.76521 15.7567 4.24328 16.2347 4.83128 16.5344C5.12958 16.6864 5.50123 16.7781 6.0879 16.826C6.68187 16.8745 7.43959 16.875 8.5 16.875H11.5C12.5604 16.875 13.3182 16.8745 13.9121 16.826C14.4987 16.7781 14.8704 16.6864 15.1687 16.5344C15.7567 16.2347 16.2347 15.7567 16.5344 15.1687C16.6864 14.8704 16.7781 14.4987 16.826 13.9121C16.8276 13.8921 16.8292 13.8718 16.8307 13.8514L16.3018 13.334L16.284 13.3165C15.9722 13.0114 15.7116 12.7566 15.4816 12.5653C15.2414 12.3656 14.9943 12.2001 14.6986 12.1055C14.2442 11.96 13.7557 11.96 13.3014 12.1055C13.0057 12.2001 12.7586 12.3656 12.5184 12.5653C12.2883 12.7566 12.0278 13.0115 11.716 13.3166L11.7047 13.3277L10.3276 11.7356L10.3104 11.7157C10.0023 11.3596 9.746 11.0632 9.51733 10.8396C9.27942 10.6069 9.0305 10.4109 8.72325 10.2924C8.25381 10.1113 7.73781 10.0898 7.2549 10.2312C6.93888 10.3237 6.67453 10.4984 6.41813 10.7104C6.17163 10.9142 5.89149 11.1883 5.5549 11.5176L5.53614 11.536L3.16927 13.8514ZM13.3333 8.33333C14.2538 8.33333 15 7.58714 15 6.66667C15 5.74619 14.2538 5 13.3333 5C12.4128 5 11.6667 5.74619 11.6667 6.66667C11.6667 7.58714 12.4128 8.33333 13.3333 8.33333Z" fill="white"/>
</svg>