<svg width="20" height="20" viewBox="0 0 20 20" fill="none" xmlns="http://www.w3.org/2000/svg">
<g id="bitcoin 1" clip-path="url(#clip0_4541_28646)">
<path id="Vector" d="M19.2138 12.2983C17.945 17.3876 12.7901 20.4846 7.70013 19.2158C2.61258 17.9469 -0.484712 12.792 0.784428 7.70296C2.05268 2.61304 7.20732 -0.484558 12.2958 0.784286C17.3854 2.05313 20.4827 7.20866 19.2138 12.2983Z" fill="#F7931A"/>
<path id="Vector_2" d="M14.1901 8.64596C14.3789 7.38187 13.4164 6.70232 12.1004 6.24899L12.5273 4.53662L11.4847 4.27685L11.069 5.9441C10.7953 5.87582 10.5139 5.8114 10.2342 5.74757L10.6528 4.06934L9.61108 3.80957L9.18388 5.52135C8.95706 5.4697 8.73441 5.41863 8.51828 5.3649L8.51947 5.35955L7.082 5.00063L6.80472 6.11391C6.80472 6.11391 7.57808 6.29115 7.56175 6.30213C7.98391 6.40752 8.0605 6.68688 8.04744 6.90835L7.56116 8.85912C7.59025 8.86654 7.62795 8.87723 7.66952 8.89385L7.55967 8.86654L6.87775 11.5993C6.82609 11.7275 6.69517 11.9199 6.40008 11.8469C6.41047 11.862 5.64245 11.6578 5.64245 11.6578L5.125 12.8512L6.48172 13.1893C6.73406 13.2526 6.98136 13.3188 7.2245 13.3811L6.79314 15.1134L7.83428 15.3731L8.26178 13.6596C8.54589 13.7368 8.82198 13.808 9.09214 13.8751L8.66642 15.5807L9.70875 15.8404L10.1401 14.1117C11.9175 14.4481 13.2543 14.3124 13.8163 12.7051C14.2696 11.4108 13.794 10.6641 12.8589 10.1769C13.5399 10.0193 14.0532 9.57132 14.1901 8.64596ZM11.8083 11.9855C11.4858 13.2799 9.30678 12.5804 8.59992 12.4047L9.1723 10.1101C9.87886 10.2865 12.144 10.6356 11.8083 11.9855ZM12.1304 8.62726C11.8365 9.80466 10.0225 9.20646 9.43384 9.0598L9.95278 6.97871C10.5415 7.12537 12.4367 7.39909 12.1304 8.62726Z" fill="white"/>
</g>
<defs>
<clipPath id="clip0_4541_28646">
<rect width="19" height="19" fill="white" transform="translate(0.5 0.5)"/>
</clipPath>
</defs>
</svg>
