<svg width="20" height="20" viewBox="0 0 20 20" fill="none" xmlns="http://www.w3.org/2000/svg">
<path d="M16.6347 1.23047C16.3172 0.618555 15.976 0.0417187 15.4191 0H4.5808C4.02314 0.0425 3.68346 0.617656 3.36517 1.23047C3.15775 1.67539 2.92728 2.38828 3.00736 3.25859C3.08822 4.14062 3.46517 4.99492 4.12767 5.79922L5.54135 5.26289C8.41635 4.17227 11.5835 4.17227 14.4585 5.26289L15.8722 5.79922C16.5347 4.99492 16.9117 4.14062 16.9925 3.25859C17.0726 2.38828 16.8421 1.67539 16.6347 1.23047ZM16.2679 13.2355C15.4421 12.0035 14.9261 10.6293 14.8148 9.36641C14.732 8.42852 14.8718 7.56094 15.2226 6.80586L14.0429 6.35859C11.4359 5.36953 8.564 5.36953 5.95697 6.35859L4.77728 6.80586C5.12806 7.56094 5.26791 8.42852 5.1851 9.36641C5.07377 10.6293 4.55775 12.0035 3.73197 13.2355C3.6726 13.3238 3.61517 13.4125 3.55892 13.5016C5.60424 14.2113 7.76361 14.5703 9.99994 14.5703C12.2363 14.5703 14.3956 14.2113 16.441 13.5016C16.3847 13.4125 16.3273 13.3238 16.2679 13.2355ZM10.5859 12.8125C10.5859 13.1359 10.3234 13.3984 9.99994 13.3984C9.6765 13.3984 9.414 13.1359 9.414 12.8125V12.2555C9.414 11.932 9.6765 11.6695 9.99994 11.6695C10.3234 11.6695 10.5859 11.932 10.5859 12.2555V12.8125ZM17.023 14.5387C14.7956 15.3379 12.4402 15.7422 9.99994 15.7422C7.55971 15.7422 5.20424 15.3379 2.97689 14.5387C2.22767 16.0602 1.88588 17.6727 1.93431 19.4305C1.94291 19.7473 2.20267 20 2.51986 20H17.48C17.7972 20 18.057 19.7473 18.0656 19.4305C18.114 17.6727 17.7722 16.0602 17.023 14.5387Z" fill="#858585"/>
</svg>
