<svg width="623" height="154" viewBox="0 0 623 154" fill="none" xmlns="http://www.w3.org/2000/svg">
<path d="M71.24 107.92C67.72 112.08 63.3467 115.28 58.12 117.52C53 119.653 47.1867 120.72 40.68 120.72C32.36 120.72 25.1067 119.067 18.92 115.76C12.84 112.347 8.14667 107.653 4.84 101.68C1.64 95.6 0.0400006 88.6133 0.0400006 80.72C0.0400006 72.8267 1.69333 65.8933 5 59.92C8.30667 53.9467 13 49.3067 19.08 46C25.2667 42.5867 32.4667 40.88 40.68 40.88C46.8667 40.88 52.68 42.0533 58.12 44.4C63.56 46.64 68.04 49.84 71.56 54L58.92 67.28C56.36 64.5067 53.5867 62.5333 50.6 61.36C47.72 60.08 44.4133 59.44 40.68 59.44C37.16 59.44 33.8533 60.3467 30.76 62.16C27.6667 63.9733 25.2133 66.5333 23.4 69.84C21.5867 73.04 20.68 76.6667 20.68 80.72C20.68 85.2 21.5333 89.04 23.24 92.24C24.9467 95.44 27.2933 97.8933 30.28 99.6C33.3733 101.307 36.84 102.16 40.68 102.16C44.3067 102.16 47.7733 101.467 51.08 100.08C54.4933 98.6933 57.2133 96.7733 59.24 94.32L71.24 107.92ZM123.95 101.2C127.47 101.2 130.67 100.4 133.55 98.8C136.537 97.0933 138.883 94.64 140.59 91.44C142.297 88.24 143.15 84.56 143.15 80.4C143.15 76.24 142.297 72.6133 140.59 69.52C138.883 66.32 136.537 63.92 133.55 62.32C130.67 60.6133 127.47 59.76 123.95 59.76C120.537 59.76 117.337 60.56 114.35 62.16C111.363 63.76 108.963 66.16 107.15 69.36C105.337 72.4533 104.43 76.1333 104.43 80.4C104.43 84.6667 105.337 88.4 107.15 91.6C108.963 94.8 111.363 97.2 114.35 98.8C117.337 100.4 120.537 101.2 123.95 101.2ZM122.67 40.88C126.297 40.88 130.137 41.68 134.19 43.28C138.243 44.7733 141.07 46.5867 142.67 48.72L142.19 44.24V42.8H163.31V118H142.83V117.2L143.31 112.4C141.71 114.747 138.883 116.613 134.83 118C130.883 119.387 126.83 120.08 122.67 120.08C114.777 120.08 107.843 118.373 101.87 114.96C96.0033 111.44 91.47 106.693 88.27 100.72C85.07 94.64 83.47 87.8667 83.47 80.4C83.47 72.4 85.1233 65.4133 88.43 59.44C91.8433 53.4667 96.4833 48.88 102.35 45.68C108.323 42.48 115.097 40.88 122.67 40.88ZM180.859 118V47.28C184.805 44.9333 189.819 43.28 195.899 42.32C202.085 41.2533 207.952 40.72 213.499 40.72C228.325 40.72 238.992 43.8667 245.499 50.16C252.005 56.3467 255.312 64.5067 255.419 74.64C255.525 89.04 255.525 103.493 255.419 118H234.619C234.725 104.667 234.725 91.3333 234.619 78C234.512 71.8133 232.912 67.28 229.819 64.4C226.725 61.52 221.979 60.08 215.579 60.08C212.699 60.08 209.925 60.3467 207.259 60.88C204.592 61.3067 202.672 61.84 201.499 62.48V118H180.859ZM310.029 59.76C306.402 59.76 303.149 60.6133 300.269 62.32C297.389 64.0267 295.149 66.48 293.549 69.68C291.949 72.88 291.149 76.5067 291.149 80.56C291.149 84.6133 291.949 88.24 293.549 91.44C295.149 94.5333 297.389 96.9333 300.269 98.64C303.149 100.347 306.402 101.2 310.029 101.2C313.869 101.2 317.282 100.347 320.269 98.64C323.255 96.8267 325.602 94.3733 327.309 91.28C329.015 88.08 329.869 84.5067 329.869 80.56C329.869 76.6133 329.015 73.0933 327.309 70C325.709 66.8 323.362 64.2933 320.269 62.48C317.282 60.6667 313.869 59.76 310.029 59.76ZM309.389 120.08C301.175 120.08 294.135 118.48 288.269 115.28C282.402 111.973 277.922 107.387 274.829 101.52C271.735 95.5467 270.189 88.56 270.189 80.56C270.189 73.3067 271.735 66.6933 274.829 60.72C277.922 54.64 282.402 49.84 288.269 46.32C294.135 42.6933 301.175 40.88 309.389 40.88C313.122 40.88 317.069 41.52 321.229 42.8C325.495 44.08 328.375 45.7867 329.869 47.92L329.549 42.48V0.719994H350.029V118H328.909V116.72L329.229 112.4C327.415 114.747 324.482 116.613 320.429 118C316.482 119.387 312.802 120.08 309.389 120.08ZM402.778 153.2H379.898L394.778 118.8L362.618 42.8H385.338L401.338 83.44L409.018 107.6H402.938L410.458 83.44L426.458 42.8H449.337L402.778 153.2Z" fill="white"/>
<path d="M482.924 94.32V118H458.444V94.32H482.924ZM538.481 101.2C542.001 101.2 545.201 100.4 548.081 98.8C551.068 97.0933 553.415 94.64 555.121 91.44C556.828 88.24 557.681 84.56 557.681 80.4C557.681 76.24 556.828 72.6133 555.121 69.52C553.415 66.32 551.068 63.92 548.081 62.32C545.201 60.6133 542.001 59.76 538.481 59.76C535.068 59.76 531.868 60.56 528.881 62.16C525.895 63.76 523.495 66.16 521.681 69.36C519.868 72.4533 518.961 76.1333 518.961 80.4C518.961 84.6667 519.868 88.4 521.681 91.6C523.495 94.8 525.895 97.2 528.881 98.8C531.868 100.4 535.068 101.2 538.481 101.2ZM537.201 40.88C540.828 40.88 544.668 41.68 548.721 43.28C552.775 44.7733 555.601 46.5867 557.201 48.72L556.721 44.24V42.8H577.841V118H557.361V117.2L557.841 112.4C556.241 114.747 553.415 116.613 549.361 118C545.415 119.387 541.361 120.08 537.201 120.08C529.308 120.08 522.375 118.373 516.401 114.96C510.535 111.44 506.001 106.693 502.801 100.72C499.601 94.64 498.001 87.8667 498.001 80.4C498.001 72.4 499.655 65.4133 502.961 59.44C506.375 53.4667 511.015 48.88 516.881 45.68C522.855 42.48 529.628 40.88 537.201 40.88ZM622.43 7.92V30H599.23V7.92H622.43ZM622.11 118H601.95V60.72H592.83L596.35 42.8H622.11V118Z" fill="url(#paint0_linear_3804_25)"/>
<defs>
<linearGradient id="paint0_linear_3804_25" x1="728.829" y1="45.125" x2="349.531" y2="430.992" gradientUnits="userSpaceOnUse">
<stop stop-color="#FC768A"/>
<stop offset="1" stop-color="#E65073"/>
</linearGradient>
</defs>
</svg>
