<svg width="20" height="20" viewBox="0 0 20 20" fill="none" xmlns="http://www.w3.org/2000/svg">
<g id="check_circle" clip-path="url(#clip0_4541_28670)">
<path id="Vector" d="M9.9974 1.66699C5.3974 1.66699 1.66406 5.40033 1.66406 10.0003C1.66406 14.6003 5.3974 18.3337 9.9974 18.3337C14.5974 18.3337 18.3307 14.6003 18.3307 10.0003C18.3307 5.40033 14.5974 1.66699 9.9974 1.66699ZM7.73906 13.5753L4.7474 10.5837C4.4224 10.2587 4.4224 9.73366 4.7474 9.40866C5.0724 9.08366 5.5974 9.08366 5.9224 9.40866L8.33073 11.8087L14.0641 6.07533C14.3891 5.75033 14.9141 5.75033 15.2391 6.07533C15.5641 6.40033 15.5641 6.92533 15.2391 7.25033L8.91406 13.5753C8.5974 13.9003 8.06406 13.9003 7.73906 13.5753Z" fill="#F2C84D"/>
</g>
<defs>
<clipPath id="clip0_4541_28670">
<rect width="20" height="20" fill="white"/>
</clipPath>
</defs>
</svg>
