<svg width="19" height="20" viewBox="0 0 19 20" fill="none" xmlns="http://www.w3.org/2000/svg">
<path d="M8.3125 6.4375V5.25H1.1875C0.533188 5.25 0 5.78319 0 6.4375V8.8125H8.56306C8.398 8.08694 8.3125 7.30556 8.3125 6.4375Z" fill="white"/>
<path d="M18.9513 11.1875C18.1414 12.4356 16.9064 13.4972 15.1371 14.5137C14.8651 14.6692 14.5588 14.75 14.25 14.75C13.9412 14.75 13.6349 14.6692 13.3665 14.5161C11.5971 13.4972 10.3621 12.4344 9.55106 11.1875H0V17.125C0 17.7805 0.533188 18.3125 1.1875 18.3125H17.8125C18.468 18.3125 19 17.7805 19 17.125V11.1875H18.9513ZM5.34375 14.75H2.96875C2.641 14.75 2.375 14.484 2.375 14.1562C2.375 13.8285 2.641 13.5625 2.96875 13.5625H5.34375C5.6715 13.5625 5.9375 13.8285 5.9375 14.1562C5.9375 14.484 5.6715 14.75 5.34375 14.75Z" fill="white"/>
<path d="M18.6402 3.51684L14.4839 1.73559C14.3331 1.67147 14.1657 1.67147 14.0149 1.73559L9.85863 3.51684C9.64131 3.60947 9.5 3.82441 9.5 4.06191V6.43691C9.5 9.70372 10.7077 11.6132 13.9543 13.4835C14.0458 13.5358 14.1479 13.5619 14.25 13.5619C14.3521 13.5619 14.4542 13.5358 14.5457 13.4835C17.7923 11.618 19 9.70847 19 6.43691V4.06191C19 3.82441 18.8587 3.60947 18.6402 3.51684ZM16.4956 6.21484L14.1206 9.18359C14.0066 9.32372 13.8356 9.40566 13.6562 9.40566C13.6479 9.40566 13.6384 9.40566 13.6313 9.40566C13.4425 9.39734 13.2679 9.29997 13.1622 9.14203L11.9747 7.36078C11.7931 7.08766 11.8667 6.71953 12.1398 6.53784C12.4106 6.35734 12.7799 6.42859 12.9628 6.70291L13.7002 7.80847L15.5669 5.47384C15.7724 5.21853 16.1464 5.17816 16.4018 5.38122C16.6583 5.58428 16.6986 5.95834 16.4956 6.21484Z" fill="white"/>
</svg>
