<svg width="24" height="19" viewBox="0 0 24 19" fill="none" xmlns="http://www.w3.org/2000/svg">
<g id="Layer 2">
<path id="Vector" d="M20.7103 3.79904L18.3479 5.74386C18.207 5.86133 18.0429 5.94768 17.8663 5.99723C17.6897 6.04678 17.5046 6.05842 17.3232 6.03138C17.1418 6.00433 16.9681 5.93922 16.8137 5.84032C16.6592 5.74141 16.5274 5.61095 16.4269 5.4575L13.635 1.28152C13.4568 1.01076 13.2142 0.7885 12.9288 0.634703C12.6435 0.480906 12.3245 0.400391 12.0004 0.400391C11.6762 0.400391 11.3572 0.480906 11.0719 0.634703C10.7866 0.7885 10.5439 1.01076 10.3658 1.28152L7.57383 5.48137C7.47143 5.63303 7.33818 5.76137 7.18279 5.85801C7.02739 5.95465 6.85336 6.01741 6.67205 6.04218C6.49074 6.06696 6.30625 6.05319 6.13062 6.00178C5.955 5.95038 5.7922 5.86249 5.65287 5.74386L3.2666 3.77518C2.9525 3.49215 2.55518 3.31848 2.13412 3.28015C1.71306 3.24183 1.29091 3.34091 0.930873 3.56258C0.570837 3.78424 0.292282 4.11656 0.136911 4.50978C-0.0184601 4.903 -0.0422887 5.33596 0.0689927 5.74386L2.35982 16.4821C2.50148 17.0599 2.83694 17.5717 3.31027 17.9321C3.78359 18.2925 4.36617 18.4798 4.96086 18.4627H19.0399C19.6297 18.4537 20.1989 18.2446 20.6542 17.8695C21.1095 17.4944 21.4238 16.9758 21.5455 16.3986L23.9317 5.74386C24.0431 5.33345 24.0177 4.89793 23.8594 4.50324C23.7011 4.10854 23.4186 3.77615 23.0546 3.55637C22.6905 3.33659 22.2648 3.24139 21.8418 3.28518C21.4188 3.32896 21.0216 3.50935 20.7103 3.79904ZM12.0004 14.6924C11.5284 14.6924 11.067 14.5524 10.6746 14.2902C10.2822 14.028 9.97635 13.6553 9.79573 13.2193C9.61512 12.7833 9.56787 12.3035 9.65994 11.8406C9.75202 11.3777 9.97929 10.9525 10.313 10.6188C10.6467 10.285 11.0719 10.0578 11.5348 9.96569C11.9977 9.87361 12.4775 9.92087 12.9136 10.1015C13.3496 10.2821 13.7223 10.5879 13.9845 10.9804C14.2467 11.3728 14.3866 11.8342 14.3866 12.3061C14.3866 12.939 14.1352 13.5459 13.6877 13.9935C13.2402 14.441 12.6332 14.6924 12.0004 14.6924Z" fill="url(#paint0_linear_4570_7171)"/>
</g>
<defs>
<linearGradient id="paint0_linear_4570_7171" x1="27.5936" y1="-1.29304" x2="-1.29913" y2="-0.0726279" gradientUnits="userSpaceOnUse">
<stop stop-color="#FC768A"/>
<stop offset="1" stop-color="#E65073"/>
</linearGradient>
</defs>
</svg>
