<svg width="24" height="24" viewBox="0 0 24 24" fill="none" xmlns="http://www.w3.org/2000/svg">
<g clip-path="url(#clip0_10737_19443)">
<path d="M9.14364 11.2548V11.2471C8.2466 11.2471 7.52271 11.9886 7.52271 12.9001C7.52271 13.8115 8.2466 14.5531 9.14364 14.5531C10.0407 14.5531 10.7646 13.8116 10.7646 12.9078C10.7646 11.9963 10.0328 11.2548 9.14364 11.2548Z" fill="#F97187"/>
<path d="M12 0.28125C5.52792 0.28125 0.28125 5.52792 0.28125 12C0.28125 18.4721 5.52792 23.7188 12 23.7188C18.4721 23.7188 23.7188 18.4721 23.7188 12C23.7188 5.52792 18.4721 0.28125 12 0.28125ZM16.3357 18.1833C16.3357 18.1833 15.7453 17.5266 15.3206 16.9474C17.3664 16.3681 18.1378 15.2095 18.1378 15.2095C16.0106 16.5247 14.024 17.0307 12 16.9649C9.97598 17.0305 7.98938 16.5247 5.86247 15.2095C5.86247 15.2095 6.63356 16.3681 8.67966 16.9474C8.25478 17.5268 7.66462 18.1833 7.66462 18.1833C4.15495 18.1061 2.79375 15.9587 2.715 16.0514C2.715 11.2702 5.03625 7.377 5.03625 7.377C7.11356 5.88638 9.04927 5.82441 9.41906 5.81667L9.65517 6.04069C7.00341 6.7822 5.72081 7.94086 5.72081 7.94086C7.99673 6.84159 10.1418 6.45492 12 6.43177C13.8582 6.4552 16.0031 6.84159 18.2792 7.94086C18.2792 7.94086 16.9966 6.7822 14.3449 6.04069L14.5809 5.81667C14.9508 5.82441 16.8864 5.88619 18.9637 7.377C18.9637 7.377 21.285 11.2701 21.285 16.0514C21.2063 15.9587 19.845 18.1061 16.3357 18.1833Z" fill="#F97187"/>
<path d="M14.8563 11.2471V11.2548C13.9672 11.2548 13.2354 11.9964 13.2354 12.9078C13.2354 13.8116 13.9593 14.5531 14.8563 14.5531C15.7533 14.5531 16.4773 13.8116 16.4773 12.9001C16.4773 11.9886 15.7534 11.2471 14.8563 11.2471Z" fill="#F97187"/>
</g>
<defs>
<clipPath id="clip0_10737_19443">
<rect width="24" height="24" fill="white"/>
</clipPath>
</defs>
</svg>
