<svg width="24" height="20" viewBox="0 0 24 20" fill="none" xmlns="http://www.w3.org/2000/svg">
<g id="Group">
<path id="Vector" d="M20.3171 2.36995C18.7874 1.66809 17.1471 1.15096 15.4319 0.854758C15.4007 0.84904 15.3695 0.863337 15.3534 0.891883C15.1424 1.26712 14.9088 1.75659 14.7451 2.14134C12.9005 1.86515 11.0652 1.86515 9.25836 2.14134C9.09468 1.74806 8.85252 1.26712 8.6406 0.891883C8.62452 0.864274 8.5933 0.849977 8.56208 0.854758C6.84796 1.14998 5.20761 1.6671 3.67696 2.36995C3.66369 2.37566 3.65235 2.38518 3.6448 2.39756C0.533426 7.04591 -0.318949 11.58 0.099176 16.0579C0.101051 16.0798 0.113379 16.1008 0.130395 16.1141C2.18319 17.6217 4.17172 18.5369 6.12327 19.1435C6.15449 19.153 6.18758 19.1416 6.20746 19.1159C6.66908 18.4855 7.0806 17.8207 7.43343 17.1217C7.45424 17.0808 7.43436 17.0322 7.3918 17.016C6.73907 16.7684 6.11755 16.4665 5.51966 16.1237C5.47236 16.0961 5.46857 16.0284 5.51211 15.996C5.63793 15.9018 5.76379 15.8037 5.88393 15.7046C5.90568 15.6865 5.93596 15.6827 5.9615 15.6941C9.88925 17.4874 14.1415 17.4874 18.0229 15.6941C18.0485 15.6817 18.0787 15.6856 18.1014 15.7036C18.2216 15.8027 18.3474 15.9017 18.4742 15.996C18.5177 16.0284 18.5148 16.096 18.4676 16.1236C17.8697 16.4731 17.2482 16.7684 16.5945 17.015C16.5519 17.0312 16.533 17.0807 16.5539 17.1216C16.9143 17.8197 17.3258 18.4844 17.7789 19.1149C17.7978 19.1416 17.8319 19.153 17.8631 19.1435C19.8241 18.5369 21.8126 17.6216 23.8654 16.1141C23.8834 16.1008 23.8948 16.0807 23.8966 16.0589C24.3971 10.8819 23.0585 6.38498 20.3482 2.39849C20.3416 2.38518 20.3303 2.37566 20.3171 2.36995ZM8.02007 13.3313C6.83755 13.3313 5.86316 12.2457 5.86316 10.9124C5.86316 9.57913 6.81861 8.49346 8.02007 8.49346C9.2309 8.49346 10.1959 9.58865 10.1769 10.9124C10.1769 12.2457 9.22143 13.3313 8.02007 13.3313ZM15.9948 13.3313C14.8123 13.3313 13.8379 12.2457 13.8379 10.9124C13.8379 9.57913 14.7934 8.49346 15.9948 8.49346C17.2056 8.49346 18.1706 9.58865 18.1517 10.9124C18.1517 12.2457 17.2057 13.3313 15.9948 13.3313Z" fill="#D1D1D1"/>
</g>
</svg>
