<svg width="20" height="20" viewBox="0 0 20 20" fill="none" xmlns="http://www.w3.org/2000/svg">
<path d="M15.625 10.625C14.7962 10.625 14.0013 10.9542 13.4153 11.5403C12.8292 12.1263 12.5 12.9212 12.5 13.75C12.5 16.5312 15.1375 18.5437 15.25 18.625C15.3582 18.7061 15.4898 18.75 15.625 18.75C15.7602 18.75 15.8918 18.7061 16 18.625C16.1125 18.5437 18.75 16.5312 18.75 13.75C18.75 12.9212 18.4208 12.1263 17.8347 11.5403C17.2487 10.9542 16.4538 10.625 15.625 10.625ZM15.625 15C15.2935 15 14.9755 14.8683 14.7411 14.6339C14.5067 14.3995 14.375 14.0815 14.375 13.75C14.375 13.4185 14.5067 13.1005 14.7411 12.8661C14.9755 12.6317 15.2935 12.5 15.625 12.5C15.9565 12.5 16.2745 12.6317 16.5089 12.8661C16.7433 13.1005 16.875 13.4185 16.875 13.75C16.875 14.0815 16.7433 14.3995 16.5089 14.6339C16.2745 14.8683 15.9565 15 15.625 15Z" fill="#858585"/>
<path d="M12.5 4.99961C13.163 4.99961 13.7989 5.263 14.2678 5.73184C14.7366 6.20068 15 6.83657 15 7.49961C15 7.83113 15.1317 8.14907 15.3661 8.38349C15.6005 8.61791 15.9185 8.74961 16.25 8.74961H18.65C18.3787 6.88343 17.5117 5.15484 16.1782 3.82138C14.8448 2.48792 13.1162 1.62094 11.25 1.34961V3.74961C11.25 4.08113 11.3817 4.39907 11.6161 4.63349C11.8505 4.86791 12.1685 4.99961 12.5 4.99961Z" fill="#858585"/>
<path d="M11.4687 15.3127C11.0589 14.8244 10.5472 14.4315 9.96965 14.1616C9.39207 13.8917 8.76247 13.7513 8.12494 13.7502C7.4619 13.7502 6.82602 13.4868 6.35718 13.018C5.88833 12.5491 5.62494 11.9132 5.62494 11.2502C5.62494 10.5872 5.88833 9.95127 6.35718 9.48243C6.82602 9.01359 7.4619 8.7502 8.12494 8.7502C8.2907 8.7502 8.44967 8.68435 8.56688 8.56714C8.68409 8.44993 8.74994 8.29096 8.74994 8.1252C8.74994 7.95943 8.68409 7.80046 8.56688 7.68325C8.44967 7.56604 8.2907 7.5002 8.12494 7.5002C7.62766 7.5002 7.15075 7.30265 6.79912 6.95102C6.44749 6.59939 6.24994 6.12248 6.24994 5.6252V2.10645C4.27311 3.06039 2.72701 4.72246 1.91829 6.76301C1.10957 8.80356 1.09731 11.0735 1.88394 13.1227C2.67057 15.1719 4.19863 16.8505 6.16504 17.8258C8.13145 18.801 10.3926 19.0016 12.4999 18.3877C12.4999 18.3002 12.4999 18.2127 12.4999 18.1252C12.4983 17.8823 12.4774 17.6398 12.4374 17.4002C12.0061 16.76 11.6791 16.0554 11.4687 15.3127Z" fill="#858585"/>
<path d="M18.7499 10.6687C18.7499 10.4437 18.7499 10.225 18.7499 10H17.8687C18.1905 10.1832 18.4868 10.4081 18.7499 10.6687Z" fill="#858585"/>
<path d="M8.125 6.25C8.62228 6.25 9.09919 6.44754 9.45083 6.79917C9.80246 7.15081 10 7.62772 10 8.125C10 8.62228 9.80246 9.09919 9.45083 9.45083C9.09919 9.80246 8.62228 10 8.125 10C7.79348 10 7.47554 10.1317 7.24112 10.3661C7.0067 10.6005 6.875 10.9185 6.875 11.25C6.875 11.5815 7.0067 11.8995 7.24112 12.1339C7.47554 12.3683 7.79348 12.5 8.125 12.5C9.23945 12.5013 10.328 12.8365 11.25 13.4625C11.3126 12.5103 11.6848 11.6046 12.3099 10.8836C12.9351 10.1626 13.7788 9.66573 14.7125 9.46875C14.4131 9.23523 14.1708 8.93658 14.004 8.59546C13.8373 8.25433 13.7504 7.87971 13.75 7.5C13.75 7.16848 13.6183 6.85054 13.3839 6.61612C13.1495 6.3817 12.8315 6.25 12.5 6.25C11.837 6.25 11.2011 5.98661 10.7322 5.51777C10.2634 5.04893 10 4.41304 10 3.75V1.25C9.15316 1.25059 8.31095 1.37482 7.5 1.61875V5.625C7.5 5.79076 7.56585 5.94973 7.68306 6.06694C7.80027 6.18415 7.95924 6.25 8.125 6.25Z" fill="#858585"/>
</svg>
