<svg xmlns="http://www.w3.org/2000/svg" width="12" height="12" viewBox="0 0 12 12" fill="none">
<g clip-path="url(#clip0_4592_13847)">
<path d="M9.31428 3.84184C9.23436 3.76417 9.12221 3.72887 9.01248 3.74692C8.90253 3.7649 8.80759 3.83392 8.75659 3.93297C8.58118 4.27373 8.35838 4.58687 8.09626 4.86369C8.12239 4.66372 8.13554 4.46256 8.13554 4.26086C8.13554 3.87383 8.08367 3.47556 7.98132 3.07696C7.6448 1.76772 6.76238 0.660507 5.56039 0.0392488C5.45574 -0.0148215 5.33105 -0.0129231 5.22809 0.0443113C5.12513 0.101569 5.0577 0.206546 5.04847 0.323968C4.95477 1.51375 4.34192 2.59619 3.36615 3.29444C3.35323 3.30374 3.34041 3.31316 3.32759 3.32254C3.30104 3.34197 3.27601 3.36034 3.25262 3.37576C3.24896 3.3782 3.24533 3.38069 3.24177 3.38324C2.62808 3.82262 2.12171 4.40833 1.77734 5.07721C1.42742 5.75758 1.25 6.48768 1.25 7.24717C1.25 7.63408 1.30187 8.03235 1.40417 8.43102C1.94405 10.5324 3.83509 12 6.00282 12C8.62339 12 10.7554 9.86786 10.7554 7.24717C10.7554 5.95483 10.2436 4.74545 9.31428 3.84184Z" fill="url(#paint0_linear_4592_13847)"/>
</g>
<defs>
<linearGradient id="paint0_linear_4592_13847" x1="12.1786" y1="-1.12499" x2="0.722318" y2="-0.836495" gradientUnits="userSpaceOnUse">
<stop stop-color="#FC768A"/>
<stop offset="1" stop-color="#E65073"/>
</linearGradient>
<clipPath id="clip0_4592_13847">
<rect width="12" height="12" fill="white"/>
</clipPath>
</defs>
</svg>