<svg width="24" height="24" viewBox="0 0 24 24" fill="none" xmlns="http://www.w3.org/2000/svg">
<path d="M10.2634 15.3751H11.1117L10.6876 14.2085L10.2634 15.3751Z" fill="white"/>
<path d="M14.625 11.625C13.1775 11.625 12 10.4475 12 9V8.625C8.6925 8.625 6 11.3175 6 14.625C6 17.9325 8.6925 20.625 12 20.625C15.3075 20.625 18 17.9325 18 14.625C18 13.5319 17.7056 12.5081 17.1937 11.625H14.625ZM12.3797 17.2161C12.3161 17.2391 12.2512 17.2502 12.1875 17.2502C11.9576 17.2502 11.742 17.1083 11.6589 16.8797L11.5208 16.5H9.85425L9.71606 16.8797C9.60994 17.1718 9.28725 17.322 8.99512 17.2161C8.70319 17.1099 8.55263 16.7872 8.65875 16.4951L10.1588 12.3701C10.2396 12.1479 10.4509 12 10.6875 12C10.9241 12 11.1354 12.1479 11.2161 12.3703L12.7161 16.4953C12.8224 16.7872 12.6716 17.1099 12.3797 17.2161ZM15 16.6875C15 16.9982 14.7482 17.25 14.4375 17.25C14.1268 17.25 13.875 16.9982 13.875 16.6875V12.9375C13.875 12.6268 14.1268 12.375 14.4375 12.375C14.7482 12.375 15 12.6268 15 12.9375V16.6875Z" fill="white"/>
<path d="M21.75 10.875C22.7831 10.875 23.625 10.0331 23.625 9V3C23.625 1.96687 22.7831 1.125 21.75 1.125H14.625C13.5919 1.125 12.75 1.96687 12.75 3V6.35588C10.5885 6.23494 8.4045 6.64256 6.42919 7.53919L5.57981 7.92544C5.45606 7.98188 5.35687 8.08106 5.30044 8.20481L4.91419 9.05419C4.78125 9.34669 4.6635 9.64388 4.5525 9.94275C4.53506 9.94106 4.518 9.9375 4.5 9.9375H2.625C2.38294 9.9375 2.16788 10.0924 2.09138 10.3222L1.84462 11.0625H0.9375C0.626813 11.0625 0.375 11.3143 0.375 11.625C0.375 11.9357 0.626813 12.1875 0.9375 12.1875H2.25C2.49206 12.1875 2.70694 12.0326 2.78362 11.8028L3.03038 11.0625H4.18837C3.91856 12.0459 3.76481 13.0522 3.72263 14.0625H1.6875C1.37681 14.0625 1.125 14.3143 1.125 14.625C1.125 14.9357 1.37681 15.1875 1.6875 15.1875H3.72244C3.76463 16.1978 3.91838 17.2041 4.18819 18.1875H3.03019L2.78344 17.4473C2.70694 17.2174 2.49206 17.0625 2.25 17.0625H0.9375C0.626813 17.0625 0.375 17.3143 0.375 17.625C0.375 17.9357 0.626813 18.1875 0.9375 18.1875H1.84462L2.09138 18.9277C2.16788 19.1576 2.38294 19.3125 2.625 19.3125H4.5C4.518 19.3125 4.53506 19.3089 4.5525 19.3073C4.6635 19.6063 4.78125 19.9033 4.91419 20.1958L5.30044 21.0452C5.35687 21.1689 5.45606 21.2681 5.57981 21.3246L6.42919 21.7108C8.19919 22.5152 10.0997 22.9176 12 22.9176C13.9003 22.9176 15.8008 22.5152 17.5708 21.7108L18.4202 21.3246C18.5439 21.2681 18.6431 21.1689 18.6996 21.0452L19.0858 20.1958C19.2186 19.9035 19.3372 19.6065 19.4482 19.3073C19.4655 19.3089 19.4822 19.3125 19.5 19.3125H21.375C21.6171 19.3125 21.8319 19.1576 21.9086 18.9277L22.1554 18.1875H23.0625C23.3732 18.1875 23.625 17.9357 23.625 17.625C23.625 17.3143 23.3732 17.0625 23.0625 17.0625H21.75C21.5079 17.0625 21.2929 17.2174 21.2164 17.4473L20.9696 18.1875H19.809C20.0786 17.2056 20.2352 16.1994 20.2774 15.1875H22.3125C22.6232 15.1875 22.875 14.9357 22.875 14.625C22.875 14.3143 22.6232 14.0625 22.3125 14.0625H20.2776C20.2326 12.9902 20.0595 11.9203 19.7557 10.875H21.75ZM17.625 3.375C17.9357 3.375 18.1875 3.62681 18.1875 3.9375C18.1875 4.24819 17.9357 4.5 17.625 4.5C17.3143 4.5 17.0625 4.24819 17.0625 3.9375C17.0625 3.62681 17.3143 3.375 17.625 3.375ZM14.8875 7.97062L16.3875 5.34562C16.47 5.20125 16.6106 5.10187 16.7756 5.07187C16.9387 5.04187 17.1075 5.08688 17.235 5.19375L17.88 5.73L19.0312 4.00125C19.1494 3.825 19.3556 3.73125 19.5619 3.75375C19.7719 3.77625 19.95 3.915 20.025 4.11188L21.525 8.04938C21.5906 8.22188 21.5681 8.41688 21.4631 8.56875C21.3581 8.72062 21.1856 8.8125 21 8.8125H15.375C15.1744 8.8125 14.9888 8.70562 14.8894 8.53312C14.7881 8.35875 14.7863 8.145 14.8875 7.97062ZM18.6337 11.0387C19.5069 13.9095 19.3037 16.9961 18.0615 19.7302L17.7626 20.3876L17.1052 20.6865C13.8604 22.161 10.1391 22.161 6.89456 20.6865L6.23719 20.3876L5.93831 19.7302C4.46381 16.4857 4.46381 12.7641 5.93831 9.51956L6.23719 8.86219L6.89437 8.56331C8.71387 7.73738 10.7274 7.36275 12.7168 7.48031C12.7281 7.48088 12.7388 7.47862 12.75 7.47844V9C12.75 10.0331 13.5919 10.875 14.625 10.875H18.612C18.612 10.9292 18.6171 10.9841 18.6337 11.0387Z" fill="white"/>
</svg>
