<svg width="77" height="76" viewBox="0 0 77 76" fill="none" xmlns="http://www.w3.org/2000/svg">
<path d="M7.625 38.5938H3.46875C2.48491 38.5938 1.6875 37.7963 1.6875 36.8125C1.6875 35.8287 2.48491 35.0312 3.46875 35.0312H6.34131L7.12269 32.6871C7.36494 31.9592 8.04597 31.4688 8.8125 31.4688H14.75C15.7338 31.4688 16.5312 32.2662 16.5312 33.25C16.5312 34.2338 15.7338 35.0312 14.75 35.0312H10.0962L9.31481 37.3754C9.07197 38.1033 8.39153 38.5938 7.625 38.5938Z" fill="#F97187"/>
<path d="M14.75 61.1562H8.8125C8.04597 61.1562 7.36494 60.6658 7.12269 59.9379L6.34131 57.5938H3.46875C2.48491 57.5938 1.6875 56.7963 1.6875 55.8125C1.6875 54.8287 2.48491 54.0312 3.46875 54.0312H7.625C8.39153 54.0312 9.07197 54.5217 9.31481 55.2496L10.0962 57.5938H14.75C15.7338 57.5938 16.5312 58.3912 16.5312 59.375C16.5312 60.3588 15.7338 61.1562 14.75 61.1562Z" fill="#F97187"/>
<path d="M13.5625 48.0938H5.84375C4.85991 48.0938 4.0625 47.2963 4.0625 46.3125C4.0625 45.3287 4.85991 44.5312 5.84375 44.5312H13.5625C14.5463 44.5312 15.3438 45.3287 15.3438 46.3125C15.3438 47.2963 14.5463 48.0938 13.5625 48.0938Z" fill="#F97187"/>
<path d="M68.1875 61.1562H62.25C61.2662 61.1562 60.4688 60.3588 60.4688 59.375C60.4688 58.3912 61.2662 57.5938 62.25 57.5938H66.9038L67.6852 55.2496C67.9274 54.5217 68.6085 54.0312 69.375 54.0312H73.5312C74.5151 54.0312 75.3125 54.8287 75.3125 55.8125C75.3125 56.7963 74.5151 57.5938 73.5312 57.5938H70.6587L69.8773 59.9379C69.6345 60.6658 68.954 61.1562 68.1875 61.1562Z" fill="#F97187"/>
<path d="M71.1562 48.0938H63.4375C62.4537 48.0938 61.6562 47.2963 61.6562 46.3125C61.6562 45.3287 62.4537 44.5312 63.4375 44.5312H71.1562C72.1401 44.5312 72.9375 45.3287 72.9375 46.3125C72.9375 47.2963 72.1401 48.0938 71.1562 48.0938Z" fill="#F97187"/>
<path d="M64.0372 54.1145C63.4138 57.4751 62.3807 60.7823 60.9379 63.9529L59.7147 66.6426C59.5366 67.0345 59.2219 67.3492 58.83 67.5273L56.1404 68.7504C50.5354 71.2976 44.5147 72.5742 38.5 72.5742C32.4794 72.5742 26.4647 71.2976 20.8597 68.7504L18.17 67.5273C17.7782 67.3492 17.4635 67.0345 17.2854 66.6426L16.0622 63.9529C10.9679 52.7429 10.9679 39.8823 16.0622 28.6723L17.2854 25.9826C17.4635 25.5907 17.7782 25.276 18.17 25.0979L20.8597 23.8748C31.1375 19.202 42.8047 18.816 53.3141 22.711C54.27 23.0614 55.2082 23.4532 56.1404 23.8748L58.83 25.0979C59.2219 25.276 59.5366 25.5907 59.7147 25.9826L60.9379 28.6723C64.5894 36.7117 65.6226 45.5942 64.0372 54.1145Z" fill="url(#paint0_linear_9105_7619)"/>
<path d="M57.5 46.3125C57.5 46.7222 57.4881 47.1319 57.4584 47.5356C56.8291 57.4453 48.5641 65.3125 38.5 65.3125C28.0263 65.3125 19.5 56.7862 19.5 46.3125C19.5 35.8388 28.0263 27.3125 38.5 27.3125C41.3441 27.3125 44.0397 27.9419 46.4681 29.0641C52.9756 32.0863 57.5 38.6828 57.5 46.3125Z" fill="#F97187"/>
<path d="M57.5 46.3124C57.5 46.7221 57.4881 47.1318 57.4584 47.5355L42.585 32.6621L46.4681 29.064C52.9756 32.0862 57.5 38.6827 57.5 46.3124Z" fill="#E56B7E"/>
<path d="M36.0175 39.1727C35.7622 38.4685 35.093 38 34.3437 38C33.5944 38 32.9252 38.4685 32.6699 39.1727L27.9199 52.2352C27.5839 53.1602 28.0607 54.1815 28.9851 54.5181C29.9096 54.8524 30.9308 54.3774 31.2681 53.4529L31.7051 52.25H36.9823L37.4199 53.4523C37.683 54.1761 38.3664 54.6256 39.0937 54.6256C39.2962 54.6256 39.5016 54.5906 39.7023 54.5175C40.6268 54.1815 41.1036 53.1596 40.7675 52.2346L36.0175 39.1727ZM33.0007 48.6875L34.3437 44.9932L35.6868 48.6875H33.0007Z" fill="white"/>
<path d="M46.2188 38C45.2349 38 44.4375 38.7974 44.4375 39.7812V52.8438C44.4375 53.8276 45.2349 54.625 46.2188 54.625C47.2026 54.625 48 53.8276 48 52.8438V39.7812C48 38.7974 47.2026 38 46.2188 38Z" fill="white"/>
<path d="M75.3125 9.5V28.5C75.3125 31.7716 72.6466 34.4375 69.375 34.4375H46.8125C43.5409 34.4375 40.875 31.7716 40.875 28.5V9.5C40.875 6.22844 43.5409 3.5625 46.8125 3.5625H69.375C72.6466 3.5625 75.3125 6.22844 75.3125 9.5Z" fill="#FFCAD3"/>
<path d="M68.4666 27.1344C68.1341 27.6153 67.5878 27.9063 67 27.9063H49.1875C48.5522 27.9063 47.9644 27.5678 47.6497 27.0216C47.3291 26.4694 47.3231 25.7925 47.6438 25.2403L52.3938 16.9278C52.655 16.4707 53.1003 16.156 53.6228 16.061C54.1394 15.966 54.6738 16.1085 55.0775 16.4469L57.12 18.145L60.7656 12.6707C61.1397 12.1125 61.7928 11.8157 62.446 11.8869C63.111 11.9582 63.675 12.3975 63.9125 13.021L68.6625 25.4897C68.8703 26.036 68.7991 26.6535 68.4666 27.1344Z" fill="#F97187"/>
<path d="M56.3125 14.25C57.2963 14.25 58.0938 13.4525 58.0938 12.4688C58.0938 11.485 57.2963 10.6875 56.3125 10.6875C55.3287 10.6875 54.5312 11.485 54.5312 12.4688C54.5312 13.4525 55.3287 14.25 56.3125 14.25Z" fill="#F97187"/>
<defs>
<linearGradient id="paint0_linear_9105_7619" x1="38.4993" y1="72.5742" x2="38.4993" y2="20.0537" gradientUnits="userSpaceOnUse">
<stop stop-color="#FFC8D1"/>
<stop offset="1" stop-color="#FFF6F7"/>
</linearGradient>
</defs>
</svg>
