<svg width="16" height="16" viewBox="0 0 16 16" fill="none" xmlns="http://www.w3.org/2000/svg">
<g clip-path="url(#clip0_2414_33451)">
<path d="M10.6667 8.46875V10.6666H8.46887V13.802H10.6667V15.9999H13.8021V13.802H16V10.6666H13.8021V8.46875H10.6667Z" fill="#858585"/>
<path d="M7.53142 0.735331C7.53142 0.329838 7.20155 0 6.79609 0C6.39063 0 6.06079 0.329869 6.06079 0.735331V6.79579C6.06079 7.20128 6.39066 7.53112 6.79609 7.53112C7.20158 7.53112 7.53142 7.20125 7.53142 6.79579V0.735331Z" fill="#858585"/>
<path d="M0.735697 7.53112C1.14116 7.53112 1.471 7.20125 1.471 6.79579V0.735331C1.471 0.329838 1.14113 0 0.735697 0C0.330204 0 0.000366213 0.329869 0.000366213 0.735331V6.79579C0.000334964 7.20125 0.330204 7.53112 0.735697 7.53112Z" fill="#858585"/>
<path d="M2.40845 3.03027H5.12331V4.50097H2.40845V3.03027Z" fill="#858585"/>
<path d="M16 6.06055H14.6425C13.7348 6.06055 12.971 6.68757 12.7607 7.53121H16V6.06055Z" fill="#858585"/>
<path d="M9.82629 5.123C10.5728 5.123 11.2538 5.4089 11.7657 5.8769V1.9394C11.7657 0.870016 10.8957 0 9.82629 0H8.46887V5.12297L9.82629 5.123Z" fill="#858585"/>
<path d="M16 5.12297V0H14.6425C13.5731 0 12.7031 0.870016 12.7031 1.9394V5.8769C13.215 5.4089 13.8959 5.123 14.6425 5.123H16V5.12297Z" fill="#858585"/>
<path d="M9.82629 6.06055H8.46887V7.53121H11.7081C11.4978 6.6876 10.7341 6.06055 9.82629 6.06055Z" fill="#858585"/>
<path d="M6.45895 14.6642C6.76716 14.253 7.75214 12.7524 7.48681 10.7067C7.31587 9.38905 6.30133 8.46875 5.01963 8.46875C4.66254 8.46875 4.30914 8.56244 3.99762 8.73965L3.76584 8.87152L3.53406 8.73965C3.22254 8.56244 2.86914 8.46875 2.51205 8.46875C1.23032 8.46875 0.21581 9.38905 0.0448752 10.7067C-0.220464 12.7524 0.764487 14.253 1.07273 14.6642C1.73706 15.5505 2.39536 15.9999 3.02932 15.9999C3.22401 15.9999 3.41441 15.9641 3.59522 15.8934L3.76584 15.8267L3.93646 15.8934C4.11727 15.9641 4.30767 15.9999 4.50236 15.9999C5.13632 15.9999 5.79462 15.5505 6.45895 14.6642Z" fill="#858585"/>
</g>
<defs>
<clipPath id="clip0_2414_33451">
<rect width="16" height="16" fill="white"/>
</clipPath>
</defs>
</svg>
