<svg width="20" height="20" viewBox="0 0 20 20" fill="none" xmlns="http://www.w3.org/2000/svg">
<g id="litecoin 1" clip-path="url(#clip0_4541_28659)">
<path id="Vector" d="M19.4999 9.99994C19.4999 15.2467 15.2467 19.5 10 19.5C4.75327 19.5 0.5 15.2467 0.5 9.99994C0.5 4.75327 4.75327 0.5 10 0.5C15.2466 0.5 19.4999 4.75327 19.4999 9.99994Z" fill="#BEBEBE"/>
<path id="Vector_2" d="M17.4817 10.0007C17.4817 14.1332 14.1315 17.4837 9.99875 17.4837C5.86608 17.4837 2.51562 14.1332 2.51562 10.0007C2.51562 5.86786 5.86608 2.51758 9.99875 2.51758C14.1315 2.51758 17.4817 5.86781 17.4817 10.0007Z" fill="#BEBEBE"/>
<path id="Vector_3" d="M9.44347 12.5379L10.0605 10.2144L11.5214 9.68066L11.8848 8.31517L11.8724 8.2813L10.4343 8.80665L11.4704 4.90527H8.53201L7.17702 9.99666L6.04569 10.41L5.67188 11.8177L6.80233 11.4047L6.00374 14.4053H13.8241L14.3254 12.5379H9.44347Z" fill="white"/>
</g>
<defs>
<clipPath id="clip0_4541_28659">
<rect width="19" height="19" fill="white" transform="translate(0.5 0.5)"/>
</clipPath>
</defs>
</svg>
