<svg width="24" height="20" viewBox="0 0 24 20" fill="none" xmlns="http://www.w3.org/2000/svg">
<g opacity="0.6" id="Lovely Lady">
<path id="Vector" d="M14.5715 19.3683L13.5686 17.6345C13.3203 17.1802 13.2344 16.6594 13.3243 16.1531C13.5908 14.8899 15.0499 15.2342 15.6515 14.0097C15.966 13.375 16.1327 12.6815 16.1401 11.978C16.1444 11.6593 15.9944 11.3035 16.1658 11.1255C16.2472 11.0428 16.2772 10.9849 16.4401 11.018C17.2631 11.2065 17.0572 9.73526 17.5715 9.67313C19.0912 9.51749 18.4448 6.12863 16.8001 7.10347C16.783 7.11313 16.764 7.11899 16.7443 7.1206C16.7246 7.12222 16.7047 7.11955 16.6862 7.11281C16.6677 7.10606 16.651 7.0954 16.6374 7.08162C16.6237 7.06783 16.6134 7.05126 16.6072 7.03313C16.5539 6.83816 16.453 6.65833 16.3131 6.5086C16.1732 6.35887 15.9983 6.24358 15.8029 6.17234C15.6075 6.10109 15.3973 6.07594 15.1898 6.09899C14.9824 6.12204 14.7836 6.19262 14.61 6.30485C14.5695 6.33079 14.5221 6.34497 14.4735 6.3457C14.4249 6.34643 14.3771 6.33369 14.3358 6.30899C13.4526 5.76696 12.4405 5.45214 11.3957 5.39451C9.79956 5.31469 6.81563 5.82517 7.73995 7.69933C7.75654 7.73429 7.76549 7.77218 7.76623 7.81063C7.76696 7.84908 7.75948 7.88726 7.74424 7.92278C7.56072 8.40253 7.44259 8.90328 7.3928 9.41244C7.15183 11.8628 8.14556 10.2816 6.4585 12.4828L6.45525 12.4868C6.44125 12.5042 6.4322 12.5248 6.42901 12.5466C6.42582 12.5684 6.4286 12.5906 6.43707 12.6111C6.63641 13.2433 7.23723 12.9251 6.91708 13.6869C6.87112 13.8112 6.9776 13.8621 7.08423 13.9393C7.28058 14.0707 6.93237 14.2785 7.04565 14.4607C7.2578 14.7534 7.25159 14.6939 7.26851 15.1186C7.28566 15.6359 7.20851 15.7186 7.25137 15.8304C7.43566 16.3145 9.28712 15.5904 9.93427 16.2649C10.14 16.48 10.2728 16.8855 10.0886 17.7049L9.74569 19.6C5.96992 16.8524 -1.10161 10.7697 0.145555 4.42209C0.625562 1.97244 3.24846 0.400024 5.88849 0.400024C8.3938 0.400024 10.8151 2.12218 11.8372 3.73106C11.8532 3.75925 11.8767 3.78276 11.9054 3.79914C11.934 3.81552 11.9667 3.82416 12 3.82416C12.0333 3.82416 12.066 3.81552 12.0946 3.79914C12.1233 3.78276 12.1469 3.75925 12.1629 3.73106C13.1779 2.13324 15.5925 0.400024 18.1115 0.400024C20.7516 0.400024 23.3745 1.97244 23.8545 4.42209C25.0673 10.5959 18.4115 16.5214 14.5715 19.3683Z" fill="white"/>
</g>
</svg>
