<svg width="100" height="100" viewBox="0 0 100 100" fill="none" xmlns="http://www.w3.org/2000/svg">
<g id="Man">
<rect width="100" height="100" rx="50" fill="url(#paint0_linear_2767_3903)"/>
<path id="Vector" d="M50 65C61.0457 65 70 53.3594 70 39C70 24.6406 61.0457 13 50 13C38.9543 13 30 24.6406 30 39C30 53.3594 38.9543 65 50 65Z" fill="#FFAFBD"/>
<path id="Vector_2" d="M50 67C32.8693 67 17.8495 72.2277 9 80.2327C18.6614 92.2401 33.4376 100 50 100C66.5624 100 81.3386 92.3218 91 80.2327C82.1505 72.3094 67.1307 67 50 67Z" fill="#FFAFBD"/>
<path id="Vector_3" d="M52.2572 80H47.7414C43.4675 80 40 76.5474 40 72.292V54.708C40 50.4526 43.4675 47 47.7414 47H52.2572C56.5311 47 59.9987 50.4526 59.9987 54.708V72.292C60.0793 76.4671 56.5311 80 52.2572 80Z" fill="#FFAFBD"/>
<path id="Vector_4" d="M33.2202 39.9476C34.633 43.1908 34.0679 46.3568 31.9958 46.8973C29.9238 47.5151 27.1925 45.2757 25.7798 42.0325C24.367 38.7893 24.9321 35.6233 27.0042 35.0828C29.0762 34.5422 31.8075 36.7044 33.2202 39.9476Z" fill="#FFAFBD"/>
<path id="Vector_5" d="M67.6931 39.9476C66.4374 43.1908 66.9397 46.3568 68.7815 46.8973C70.6233 47.5151 73.0511 45.2757 74.3069 42.0325C75.5626 38.7893 75.0603 35.6233 73.2185 35.0828C71.4605 34.5422 68.9489 36.7044 67.6931 39.9476Z" fill="#FFAFBD"/>
<path id="Vector_6" d="M32.2582 39.9154C29.5896 35.0578 26.9209 29.9574 27.0018 24.4522C27.1635 18.9469 31.2878 13.1178 36.7868 13.3607C37.7573 13.3607 38.7277 13.6036 39.6172 13.4417C41.4772 13.1988 42.9328 11.5796 44.4693 10.4462C47.9466 7.85548 52.7987 7.28876 56.7613 8.90795C59.2682 9.87946 61.3707 11.6606 63.7159 12.794C68.2445 14.8989 73.7436 14.737 78.1104 12.2273C77.2209 13.9274 75.6844 15.3037 73.9053 15.9514C75.5227 16.4372 77.3826 16.4372 79 15.7895C78.0296 17.5706 76.4122 18.9469 74.5522 19.6756C75.927 19.7565 77.3018 19.8375 78.7574 19.9994C77.5444 21.6995 75.8461 22.9949 73.9053 23.7235C75.0375 23.7235 76.0887 23.8045 77.2209 23.8045C76.4122 26.2333 74.3097 28.1763 71.8027 28.743C72.5306 28.743 73.1775 28.743 73.9053 28.743C71.5601 32.0623 69.2958 35.3817 66.9506 38.782C66.3037 39.7535 65.5759 40.725 64.6055 41.3727C63.7968 41.8584 62.8264 42.1013 61.9368 42.3442C55.063 43.8824 48.0275 44.3682 41.0728 43.7205C38.6468 43.4776 36.2208 43.0728 34.2799 41.6156C32.3391 40.1583 31.3687 37.2437 32.6626 35.3007" fill="#FFAFBD"/>
<path id="Vector_7" d="M37.3832 72.3435C37.5365 69.229 37.8431 66.1145 38.3796 63C39.6825 64.7405 41.9051 65.0153 43.8211 65.1069C46.8102 65.2901 49.7992 65.3817 52.7116 65.5649C53.0948 67.9466 53.3247 70.8779 51.8685 72.5267C51.1788 73.3511 50.2591 73.7176 49.3394 73.9924C47.3467 74.6336 45.2773 75 43.208 75C40.7555 75 37.7664 74.1756 37 71.3359C37.2299 71.0611 37.5365 70.7863 37.7664 70.5115" fill="#FFAFBD"/>
<path id="Vector_8" d="M63.5928 72.3435C63.43 69.229 63.1042 66.1145 62.5342 63C61.1499 64.7405 58.7883 65.0153 56.7525 65.1069C53.5767 65.2901 50.4008 65.3817 47.3064 65.5649C46.8993 67.9466 46.655 70.8779 48.2022 72.5267C48.9351 73.3511 49.9123 73.7176 50.8894 73.9924C53.0067 74.6336 55.2053 75 57.404 75C60.0098 75 63.1857 74.1756 64 71.3359C63.7557 71.0611 63.43 70.7863 63.1857 70.5115" fill="#FFAFBD"/>
</g>
<defs>
<linearGradient id="paint0_linear_2767_3903" x1="114.973" y1="-9.37495" x2="-5.50608" y2="-5.54477" gradientUnits="userSpaceOnUse">
<stop stop-color="#FC768A"/>
<stop offset="1" stop-color="#E65073"/>
</linearGradient>
</defs>
</svg>
