<svg width="65" height="40" viewBox="0 0 65 40" fill="none" xmlns="http://www.w3.org/2000/svg">
<rect width="65" height="40" rx="3" fill="white"/>
<path d="M38.51 9.51746H27.0258V30.4828H38.51V9.51746Z" fill="#FF5F00"/>
<path d="M27.755 20.0001C27.7532 17.9809 28.2036 15.9879 29.0721 14.1717C29.9406 12.3556 31.2045 10.764 32.768 9.51742C30.8318 7.97136 28.5065 7.00989 26.0578 6.7429C23.6092 6.47591 21.136 6.91416 18.9209 8.00759C16.7059 9.10102 14.8383 10.8055 13.5317 12.9262C12.2252 15.0469 11.5323 17.4982 11.5323 20.0001C11.5323 22.5019 12.2252 24.9532 13.5317 27.0739C14.8383 29.1946 16.7059 30.8991 18.9209 31.9925C21.136 33.086 23.6092 33.5242 26.0578 33.2572C28.5065 32.9902 30.8318 32.0288 32.768 30.4827C31.2045 29.2361 29.9406 27.6445 29.0721 25.8284C28.2036 24.0122 27.7532 22.0192 27.755 20.0001Z" fill="#EB001B"/>
<path d="M54.003 20.0001C54.0031 22.5018 53.3103 24.9532 52.0038 27.0739C50.6973 29.1946 48.8298 30.8991 46.6148 31.9925C44.3997 33.0859 41.9266 33.5242 39.478 33.2572C37.0294 32.9902 34.7041 32.0288 32.7679 30.4827C34.3301 29.2349 35.5929 27.643 36.4613 25.8271C37.3297 24.0113 37.7809 22.0188 37.7809 20.0001C37.7809 17.9813 37.3297 15.9888 36.4613 14.173C35.5929 12.3571 34.3301 10.7653 32.7679 9.51741C34.7041 7.97135 37.0294 7.00988 39.478 6.74289C41.9266 6.47591 44.3997 6.91418 46.6148 8.00762C48.8298 9.10106 50.6973 10.8055 52.0038 12.9262C53.3103 15.0469 54.0031 17.4983 54.003 20.0001Z" fill="#F79E1B"/>
<path d="M52.7508 28.2621V27.8329H52.9212V27.7455H52.4873V27.8329H52.6577V28.2621H52.7508ZM53.5932 28.2621V27.7446H53.4602L53.3072 28.1006L53.1542 27.7446H53.0211V28.2621H53.115V27.8718L53.2585 28.2083H53.3559L53.4993 27.8709V28.2621H53.5932Z" fill="#F79E1B"/>
</svg>
