<svg width="20" height="20" viewBox="0 0 20 20" fill="none" xmlns="http://www.w3.org/2000/svg">
<g clip-path="url(#clip0_2414_33474)">
<path d="M18.3334 3.33301H14.1667V1.66634C14.1667 1.44533 14.0789 1.23337 13.9226 1.07709C13.7664 0.920805 13.5544 0.833008 13.3334 0.833008H6.66671C6.44569 0.833008 6.23373 0.920805 6.07745 1.07709C5.92117 1.23337 5.83337 1.44533 5.83337 1.66634V3.33301H1.66671C1.44569 3.33301 1.23373 3.42081 1.07745 3.57709C0.921172 3.73337 0.833374 3.94533 0.833374 4.16634V7.49967C0.833246 7.66624 0.883036 7.82902 0.976319 7.96701C1.0696 8.10501 1.2021 8.21188 1.35671 8.27384L9.69004 11.6072C9.88918 11.6861 10.1109 11.6861 10.31 11.6072L18.6434 8.27384C18.798 8.21188 18.9305 8.10501 19.0238 7.96701C19.117 7.82902 19.1668 7.66624 19.1667 7.49967V4.16634C19.1667 3.94533 19.0789 3.73337 18.9226 3.57709C18.7664 3.42081 18.5544 3.33301 18.3334 3.33301ZM7.50004 2.49967H12.5V3.33301H7.50004V2.49967Z" fill="#858585"/>
<path d="M10.0001 13.3332C9.68388 13.3335 9.37052 13.2735 9.07675 13.1565L1.66675 10.1924V18.3332C1.66675 18.5542 1.75455 18.7662 1.91083 18.9225C2.06711 19.0788 2.27907 19.1665 2.50008 19.1665H17.5001C17.7211 19.1665 17.9331 19.0788 18.0893 18.9225C18.2456 18.7662 18.3334 18.5542 18.3334 18.3332V10.1924L10.9284 13.1549C10.6331 13.2727 10.318 13.3332 10.0001 13.3332Z" fill="#858585"/>
</g>
<defs>
<clipPath id="clip0_2414_33474">
<rect width="20" height="20" fill="white"/>
</clipPath>
</defs>
</svg>
