<svg width="20" height="20" viewBox="0 0 20 20" fill="none" xmlns="http://www.w3.org/2000/svg">
<g clip-path="url(#clip0_2414_33438)">
<path d="M4.95876 8.47873L4.96376 8.4758C4.96403 8.47564 4.96419 8.47545 4.96446 8.47529L5.892 7.93998C5.87243 7.83498 5.85942 7.72763 5.85942 7.61697C5.85942 7.50631 5.87243 7.39896 5.89204 7.29396L4.9645 6.75865C4.96423 6.75849 4.96407 6.7583 4.9638 6.75814L4.9588 6.75521C4.65782 6.58068 4.29274 6.58068 3.98489 6.75291C3.69536 6.91541 3.52485 7.19349 3.51685 7.51509C3.54294 7.63244 3.40896 8.15771 3.98489 8.48099C4.29274 8.65322 4.65778 8.65322 4.95876 8.47873Z" fill="#858585"/>
<path d="M8.74879 6.28337L9.68469 5.74329C9.98395 5.57036 10.1646 5.25942 10.1658 4.91181C10.1681 4.56564 9.99184 4.25493 9.69543 4.07982C9.35324 3.88185 8.98703 3.88239 8.68262 4.05806C8.3782 4.23431 8.20312 4.537 8.20312 4.88837V5.96732C8.40531 6.03942 8.58828 6.147 8.74879 6.28337Z" fill="#858585"/>
<path d="M6.48562 8.95117L5.54972 9.49125C5.25046 9.66418 5.0698 9.97512 5.06863 10.3227C5.06632 10.6689 5.24257 10.9796 5.53898 11.1547C5.88116 11.3527 6.24738 11.3521 6.55179 11.1765C6.8562 11.0002 7.03128 10.6975 7.03128 10.3462V9.26727C6.82909 9.19512 6.64613 9.08754 6.48562 8.95117Z" fill="#858585"/>
<path d="M7.61719 8.20312C7.94079 8.20312 8.20312 7.94079 8.20312 7.61719C8.20312 7.29358 7.94079 7.03125 7.61719 7.03125C7.29358 7.03125 7.03125 7.29358 7.03125 7.61719C7.03125 7.94079 7.29358 8.20312 7.61719 8.20312Z" fill="#858585"/>
<path d="M5.54972 5.74316L6.48562 6.28324C6.64613 6.14684 6.82909 6.03926 7.03128 5.96719V4.88824C7.03128 4.53691 6.8562 4.23422 6.55179 4.05797C6.24738 3.88172 5.88117 3.88172 5.57445 4.05797C5.24257 4.2548 5.06632 4.56551 5.06863 4.91168C5.06976 5.2593 5.25042 5.57023 5.54972 5.74316Z" fill="#858585"/>
<path d="M9.68469 9.49125L8.74879 8.95117C8.58828 9.08758 8.40531 9.19516 8.20312 9.26723V10.3462C8.20312 10.6975 8.3782 11.0002 8.68262 11.1764C8.98703 11.3527 9.35324 11.3527 9.65996 11.1764C9.99184 10.9796 10.1681 10.6689 10.1658 10.3227C10.1646 9.97512 9.98398 9.66418 9.68469 9.49125Z" fill="#858585"/>
<path d="M15.0318 5.87824C14.2216 2.41699 11.1729 0 7.61719 0C3.41719 0 0 3.41719 0 7.61719C0 11.8153 3.3491 15.2344 7.61719 15.2344C11.8172 15.2344 15.2344 11.8172 15.2344 7.61719C15.2344 7.00035 15.1657 6.41211 15.0318 5.87824ZM12.8895 7.75109C12.8712 8.48238 12.4718 9.13867 11.8229 9.5032C11.639 9.60656 11.445 9.67465 11.2474 9.72086C11.3028 9.91133 11.3367 10.1099 11.3377 10.3163C11.3411 11.0842 10.9497 11.7749 10.2905 12.164C9.55672 12.5871 8.75559 12.5711 8.09555 12.1909C7.91359 12.0855 7.75652 11.9538 7.61719 11.8076C7.47785 11.9538 7.32078 12.0855 7.13883 12.1909C6.4632 12.5804 5.66102 12.5779 4.99078 12.1914C4.28469 11.7749 3.89328 11.0842 3.89672 10.3163C3.89766 10.11 3.93164 9.91129 3.98707 9.72086C3.78953 9.67465 3.59547 9.60656 3.41152 9.5032C2.17879 8.81074 2.37453 7.60059 2.34492 7.48332C2.36324 6.75203 2.76262 6.09574 3.41152 5.73121C3.59527 5.6277 3.78926 5.5591 3.9868 5.51285C3.93152 5.32258 3.8977 5.12426 3.89676 4.91813C3.89332 4.15023 4.28473 3.45957 4.94391 3.07047C5.66375 2.65449 6.46598 2.65563 7.13887 3.04359C7.32082 3.14895 7.47789 3.28062 7.61723 3.42684C7.75656 3.28062 7.91363 3.14895 8.09559 3.04359C8.76734 2.6568 9.56957 2.65508 10.2436 3.04301C10.9497 3.45957 11.3411 4.15023 11.3377 4.91813C11.3368 5.12441 11.3029 5.32281 11.2476 5.51316C11.4452 5.55937 11.6392 5.62789 11.8229 5.73125C13.0556 6.42367 12.8599 7.63383 12.8895 7.75109Z" fill="#858585"/>
<path d="M11.2496 6.75291C10.9417 6.58068 10.5766 6.58068 10.2756 6.75521L10.2706 6.75814C10.2704 6.7583 10.2702 6.75849 10.2699 6.75865L9.34241 7.29396C9.36202 7.39896 9.37502 7.50631 9.37502 7.61697C9.37502 7.72763 9.36202 7.83498 9.34241 7.93998L10.2699 8.47529C10.2702 8.47545 10.2704 8.47564 10.2706 8.4758L10.2756 8.47873C10.5766 8.65326 10.9417 8.65326 11.2496 8.48103C11.5391 8.31853 11.7096 8.04045 11.7176 7.71884C11.6915 7.60146 11.8255 7.07615 11.2496 6.75291Z" fill="#858585"/>
<path d="M17.5782 10.5996C17.5365 9.2482 17.1053 7.99578 16.3709 6.99414C16.7301 12.2349 12.5815 16.4063 7.61724 16.4063C7.27927 16.4063 7.11704 16.3761 6.99927 16.3687C7.01099 16.565 7.0313 16.7655 7.0313 16.9568V20.0001H12.8907V18.1647C15.6346 18.8856 17.3043 18.7281 17.5782 18.7501V15.5698L20 14.1593C19.8826 14.0421 17.6344 12.2947 17.5782 10.5996Z" fill="#858585"/>
</g>
<defs>
<clipPath id="clip0_2414_33438">
<rect width="20" height="20" fill="white"/>
</clipPath>
</defs>
</svg>
