<svg width="34" height="32" viewBox="0 0 34 32" fill="none" xmlns="http://www.w3.org/2000/svg">
<g id="_x39_22">
<path id="Vector" d="M21.4662 0.0488281H10.3338C9.14061 0.0488281 7.99 0.475549 7.03841 1.39186L2.2891 6.07187C1.43874 6.92205 0.890625 8.09567 0.890625 9.42262V24.4595C0.890625 27.0765 3.02299 29.2088 5.63993 29.2088H18.5722C18.5583 29.195 18.5583 29.1811 18.5445 29.1672C16.4676 25.4288 16.7169 21.0949 16.8553 19.7796C16.9523 18.6165 17.6307 17.5919 18.6692 17.038L24.277 14.0057C24.7891 13.7288 25.3568 13.5903 25.9246 13.5903C26.0216 13.5903 26.1321 13.5903 26.2292 13.6042V4.79805C26.2292 2.18111 24.0968 0.0488281 21.4662 0.0488281ZM11.8707 20.6657H7.77229C7.01069 20.6657 6.38768 20.0427 6.38768 19.2811C6.38768 18.5057 7.01069 17.8965 7.77229 17.8965H11.8707C12.646 17.8965 13.2553 18.5057 13.2553 19.2811C13.2553 20.0427 12.646 20.6657 11.8707 20.6657ZM15.9831 14.3104H7.77229C7.01069 14.3104 6.38768 13.6873 6.38768 12.9257C6.38768 12.1504 7.01069 11.5411 7.77229 11.5411H15.9831C16.7446 11.5411 17.3678 12.1504 17.3678 12.9257C17.3678 13.6873 16.7446 14.3104 15.9831 14.3104Z" fill="#A4A4A4"/>
<path id="Vector_2" d="M20.6338 19.5442C20.4263 19.655 20.2877 19.8489 20.2738 20.0843C20.1494 21.2335 19.9554 24.8612 21.6307 27.8797C21.7693 28.1289 21.9216 28.3781 22.0877 28.6135C23.0985 30.0812 24.6078 31.3135 26.8646 31.9504C34.0508 29.915 33.2063 21.8428 32.9294 20.0565C32.9017 19.835 32.7631 19.655 32.5694 19.5442L26.9339 16.4981C26.7263 16.3874 26.4632 16.3874 26.2555 16.4981L26.2277 16.5119C26.0878 16.5878 20.2688 19.7421 20.6338 19.5442Z" fill="#A4A4A4"/>
</g>
</svg>
