<svg width="20" height="20" viewBox="0 0 20 20" fill="none" xmlns="http://www.w3.org/2000/svg">
<g clip-path="url(#clip0_2414_33396)">
<path d="M18.666 13.448L20 12.7809L18.666 10.2738V9.425C18.666 7.34648 17.5129 5.53672 15.811 4.60156C16.1489 5.53164 16.3332 6.53516 16.3332 7.58047C16.3332 12.2898 12.5946 16.1426 7.92932 16.3262L8.80706 19.9996H15.2417L15.8047 18.6727H14.5492L13.4211 17.1977L14.352 16.4855L15.1281 17.5008H17.7668C18.3098 17.5008 18.7978 17.1697 18.9985 16.6653C19.2002 16.1584 19.0708 15.5798 18.6724 15.2072L18.666 15.2012V13.448Z" fill="#858585"/>
<path d="M15.1613 7.58086C15.1613 3.40078 11.7605 0 7.58086 0C3.40078 0 0 3.40078 0 7.58086C0 11.7605 3.40078 15.1613 7.58086 15.1613C11.7605 15.1613 15.1613 11.7605 15.1613 7.58086ZM10.8179 8.55676L7.58066 11.7941L4.3434 8.55676C3.33668 7.55004 3.33668 5.91191 4.3434 4.9052C4.83105 4.4175 5.47949 4.14895 6.16918 4.14895C6.67816 4.14895 7.16465 4.2952 7.58066 4.56785C7.99664 4.2952 8.48316 4.14895 8.99215 4.14895C9.68184 4.14895 10.3303 4.4175 10.8179 4.9052C11.8246 5.91191 11.8246 7.55004 10.8179 8.55676Z" fill="#858585"/>
<path d="M8.99216 5.32031C8.61548 5.32031 8.26134 5.46699 7.99501 5.73332L7.58071 6.14766L7.16642 5.73332C6.90009 5.46699 6.54591 5.32031 6.16927 5.32031C5.79263 5.32031 5.43845 5.46699 5.17212 5.73332C4.62231 6.28316 4.62231 7.17781 5.17212 7.72766L7.58075 10.1363L9.98938 7.72766C10.5392 7.17781 10.5392 6.28316 9.98938 5.73332C9.72298 5.46699 9.3688 5.32031 8.99216 5.32031Z" fill="#858585"/>
</g>
<defs>
<clipPath id="clip0_2414_33396">
<rect width="20" height="20" fill="white"/>
</clipPath>
</defs>
</svg>
