<svg width="20" height="20" viewBox="0 0 20 20" fill="none" xmlns="http://www.w3.org/2000/svg">
<path d="M18.0918 16.9082L15.7335 14.5582C17.012 12.9788 17.6356 10.969 17.4759 8.94324C17.3162 6.9175 16.3852 5.03027 14.875 3.67073C13.3647 2.31119 11.3904 1.58298 9.35906 1.63628C7.32772 1.68957 5.39428 2.5203 3.95741 3.95717C2.52055 5.39403 1.68982 7.32748 1.63652 9.35881C1.58323 11.3901 2.31143 13.3645 3.67097 14.8747C5.03052 16.385 6.91774 17.3159 8.94349 17.4757C10.9692 17.6354 12.979 17.0117 14.5585 15.7332L16.9085 18.0916C16.986 18.1697 17.0781 18.2317 17.1797 18.274C17.2812 18.3163 17.3901 18.3381 17.5002 18.3381C17.6102 18.3381 17.7191 18.3163 17.8206 18.274C17.9222 18.2317 18.0144 18.1697 18.0918 18.0916C18.1699 18.0141 18.2319 17.9219 18.2742 17.8204C18.3165 17.7188 18.3383 17.6099 18.3383 17.4999C18.3383 17.3899 18.3165 17.281 18.2742 17.1794C18.2319 17.0779 18.1699 16.9857 18.0918 16.9082ZM3.33349 9.58325C3.33349 8.34711 3.70005 7.13874 4.38681 6.11093C5.07356 5.08312 6.04968 4.28205 7.19172 3.809C8.33376 3.33595 9.59042 3.21218 10.8028 3.45334C12.0152 3.6945 13.1288 4.28975 14.0029 5.16383C14.877 6.03791 15.4722 7.15155 15.7134 8.36393C15.9546 9.57631 15.8308 10.833 15.3577 11.975C14.8847 13.1171 14.0836 14.0932 13.0558 14.7799C12.028 15.4667 10.8196 15.8332 9.58349 15.8332C7.92589 15.8332 6.33617 15.1748 5.16407 14.0027C3.99197 12.8306 3.33349 11.2408 3.33349 9.58325Z" fill="#8D8D8D"/>
</svg>
