<svg xmlns="http://www.w3.org/2000/svg" width="30" height="36" viewBox="0 0 30 36" fill="none">
<path d="M29.2173 8.26197L15.6131 0.168645C15.235 -0.0562149 14.7641 -0.0562149 14.3861 0.168645L0.781789 8.26197C0.418203 8.47832 0.195312 8.87024 0.195312 9.29331V13.9133C0.195312 23.6442 5.8175 32.5318 14.5663 35.919C14.8448 36.0269 15.154 36.027 15.4328 35.919C24.1603 32.5402 29.8037 23.6719 29.8037 13.9133V9.29331C29.8038 8.87017 29.5809 8.47832 29.2173 8.26197ZM20.9281 15.3035L13.4071 22.8245C12.9385 23.2932 12.1787 23.2932 11.71 22.8245L9.07051 20.1851C8.60187 19.7165 8.60187 18.9566 9.07051 18.488C9.53914 18.0194 10.299 18.0194 10.7676 18.488L12.5585 20.2789L19.231 13.6064C19.6996 13.1379 20.4594 13.1379 20.9281 13.6064C21.3968 14.0751 21.3968 14.8349 20.9281 15.3035Z" fill="#A4A4A4"/>
</svg>