<svg width="14" height="14" viewBox="0 0 14 14" fill="none" xmlns="http://www.w3.org/2000/svg">
<path d="M0.877734 1.75586H13.1195C13.6035 1.75586 13.9973 2.14961 13.9973 2.63359C13.9973 3.11758 13.6035 3.51133 13.1195 3.51133H0.877734C0.39375 3.51406 0 3.12031 0 2.63359C0 2.14961 0.39375 1.75586 0.877734 1.75586Z" fill="#A4A4A4"/>
<path d="M0.877734 6.12305H8.68984C9.17383 6.12305 9.56758 6.5168 9.56758 7.00078C9.56758 7.48477 9.17383 7.87852 8.68984 7.87852H0.877734C0.39375 7.87852 0 7.48477 0 7.00078C0 6.5168 0.39375 6.12305 0.877734 6.12305Z" fill="#A4A4A4"/>
<path d="M0.877734 10.4863H4.26016C4.74414 10.4863 5.13789 10.8801 5.13789 11.3641C5.13789 11.848 4.74414 12.2418 4.26016 12.2418H0.877734C0.39375 12.2445 0 11.8508 0 11.3668C0 10.8801 0.39375 10.4863 0.877734 10.4863Z" fill="#A4A4A4"/>
</svg>
