<svg width="20" height="20" viewBox="0 0 20 20" fill="none" xmlns="http://www.w3.org/2000/svg">
<g clip-path="url(#clip0_3128_15970)">
<path d="M1.66699 16.667H3.33366C3.79199 16.667 4.16699 16.292 4.16699 15.8337V8.33366C4.16699 7.87533 3.79199 7.50033 3.33366 7.50033H1.66699V16.667ZM18.192 10.7337C18.2837 10.5253 18.3337 10.3003 18.3337 10.067V9.16699C18.3337 8.25033 17.5837 7.50033 16.667 7.50033H12.0837L12.8503 3.62533C12.892 3.44199 12.867 3.24199 12.7837 3.07533C12.592 2.70033 12.3503 2.35866 12.0503 2.05866L11.667 1.66699L6.32533 7.00866C6.00866 7.32533 5.83366 7.75033 5.83366 8.19199V14.7253C5.83366 15.792 6.70866 16.667 7.78366 16.667H14.542C15.1253 16.667 15.6753 16.3587 15.9753 15.8587L18.192 10.7337Z" fill="#646464"/>
</g>
<defs>
<clipPath id="clip0_3128_15970">
<rect width="20" height="20" fill="white"/>
</clipPath>
</defs>
</svg>
