<svg width="20" height="20" viewBox="0 0 20 20" fill="none" xmlns="http://www.w3.org/2000/svg">
<g clip-path="url(#clip0_3128_15967)">
<path d="M18.3337 3.33301H16.667C16.2087 3.33301 15.8337 3.70801 15.8337 4.16634V11.6663C15.8337 12.1247 16.2087 12.4997 16.667 12.4997H18.3337V3.33301ZM1.80866 9.26634C1.71699 9.47467 1.66699 9.69967 1.66699 9.93301V10.833C1.66699 11.7497 2.41699 12.4997 3.33366 12.4997H7.91699L7.15033 16.3747C7.10866 16.558 7.13366 16.758 7.21699 16.9247C7.40866 17.2997 7.65033 17.6413 7.95033 17.9413L8.33366 18.333L13.6753 12.9913C13.992 12.6747 14.167 12.2497 14.167 11.808V5.28301C14.167 4.20801 13.292 3.33301 12.217 3.33301H5.46699C4.87533 3.33301 4.33366 3.64134 4.03366 4.14134L1.80866 9.26634Z" fill="#646464"/>
</g>
<defs>
<clipPath id="clip0_3128_15967">
<rect width="20" height="20" fill="white"/>
</clipPath>
</defs>
</svg>
