<svg width="40" height="40" viewBox="0 0 40 40" fill="none" xmlns="http://www.w3.org/2000/svg">
<g clip-path="url(#clip0_2385_9514)">
<path d="M33.3333 10L15 10C14.0833 10 13.3333 10.75 13.3333 11.6667C13.3333 12.5833 14.0833 13.3333 15 13.3333L33.3333 13.3333C34.25 13.3333 35 12.5833 35 11.6667C35 10.75 34.25 10 33.3333 10ZM33.3333 18.3333L20 18.3333C19.0833 18.3333 18.3333 19.0833 18.3333 20C18.3333 20.9167 19.0833 21.6667 20 21.6667L33.3333 21.6667C34.25 21.6667 35 20.9167 35 20C35 19.0833 34.25 18.3333 33.3333 18.3333ZM35 28.3333C35 27.4167 34.25 26.6667 33.3333 26.6667L15 26.6667C14.0833 26.6667 13.3333 27.4167 13.3333 28.3333C13.3333 29.25 14.0833 30 15 30L33.3333 30C34.25 30 35 29.25 35 28.3333ZM6.16667 15.2L10.9667 20L6.16667 24.8C5.51667 25.45 5.51667 26.5 6.16667 27.15C6.81667 27.8 7.86667 27.8 8.51667 27.15L14.5 21.1667C15.15 20.5167 15.15 19.4667 14.5 18.8167L8.51667 12.8333C7.86667 12.1833 6.81667 12.1833 6.16667 12.8333C5.53334 13.4833 5.51667 14.55 6.16667 15.2Z" fill="white"/>
</g>
<defs>
<clipPath id="clip0_2385_9514">
<rect width="40" height="40" fill="white" transform="translate(40 40) rotate(180)"/>
</clipPath>
</defs>
</svg>
