<svg width="65" height="40" viewBox="0 0 65 40" fill="none" xmlns="http://www.w3.org/2000/svg">
<rect width="65" height="40" rx="3" fill="white"/>
<path d="M26.95 12.8921L20.9107 27.1455H16.9706L13.9986 15.7706C13.8182 15.07 13.6613 14.8133 13.1126 14.5181C12.2167 14.0374 10.7372 13.5863 9.43549 13.3063L9.5239 12.8921H15.8664C16.6748 12.8921 17.4016 13.4244 17.5851 14.3454L19.1547 22.5931L23.0339 12.8918H26.95V12.8921ZM42.3883 22.4919C42.4041 18.73 37.1296 18.5227 37.1659 16.8422C37.1771 16.3308 37.6694 15.787 38.747 15.6482C39.2811 15.5791 40.7526 15.5263 42.4217 16.2861L43.0763 13.2635C42.1795 12.9415 41.0255 12.6316 39.5898 12.6316C35.9055 12.6316 33.3127 14.569 33.2908 17.3432C33.267 19.3952 35.1415 20.5402 36.5537 21.2221C38.0065 21.9203 38.494 22.369 38.4885 22.9936C38.4781 23.9497 37.3297 24.3718 36.2565 24.3884C34.383 24.4169 33.2958 23.8869 32.4292 23.4884L31.7537 26.611C32.6246 27.0062 34.2321 27.3511 35.8988 27.3684C39.8147 27.3684 42.3763 25.455 42.3883 22.4919ZM52.1171 27.1455H55.5645L52.5553 12.8921H49.3734C48.6579 12.8921 48.0544 13.3042 47.7873 13.9378L42.1939 27.1455H46.1079L46.8849 25.0165H51.6671L52.1171 27.1455ZM47.9581 22.0952L49.92 16.7436L51.0492 22.0952H47.9581ZM32.2757 12.8921L29.1935 27.1455H25.4662L28.5496 12.8921H32.2757Z" fill="#1434CB"/>
</svg>
