<svg width="20" height="20" viewBox="0 0 20 20" fill="none" xmlns="http://www.w3.org/2000/svg">
<path d="M11.3739 1.93365C11.4108 1.96825 11.4552 1.99392 11.5036 2.00867C11.552 2.02342 11.6032 2.02687 11.6532 2.01875C13.2887 1.78053 13.9665 4.2722 14.1042 5.81341C14.2897 7.88898 13.4089 9.0112 14.94 10.4325C14.9795 10.4691 15.0099 10.5145 15.0287 10.565C15.0474 10.6155 15.054 10.6697 15.0478 10.7233C15.0417 10.7768 15.023 10.8282 14.9933 10.8731C14.9636 10.9181 14.9237 10.9554 14.8768 10.9821C13.9735 11.5071 12.9262 11.7302 11.8873 11.619C11.8378 11.6116 11.7873 11.6151 11.7393 11.629C11.6912 11.643 11.6468 11.6672 11.609 11.6999C11.5712 11.7327 11.5409 11.7733 11.5203 11.8188C11.4996 11.8644 11.4891 11.9139 11.4894 11.9639V12.3608C11.4911 12.4367 11.5115 12.5111 11.5486 12.5774C11.5856 12.6437 11.6384 12.6999 11.7021 12.7412C13.1874 14.059 15.057 14.3083 15.6201 14.7948C15.9947 15.1185 16.9359 16.0812 17.0308 18.3825C17.0332 18.4296 17.026 18.4767 17.0097 18.5209C16.9934 18.5651 16.9684 18.6056 16.936 18.6399C16.9037 18.6743 16.8648 18.7017 16.8216 18.7206C16.7784 18.7395 16.7318 18.7494 16.6847 18.7499H3.31507C3.26758 18.7495 3.22065 18.7395 3.17716 18.7204C3.13368 18.7013 3.09455 18.6735 3.06218 18.6388C3.0298 18.604 3.00485 18.563 2.98887 18.5183C2.97288 18.4735 2.96619 18.426 2.96921 18.3786C3.13698 15.4211 3.72022 15.0144 4.39885 14.5747C4.8211 14.3012 7.24808 13.5736 8.07437 12.7892C8.12676 12.7531 8.17105 12.7066 8.2044 12.6525C8.23775 12.5983 8.25942 12.5378 8.26803 12.4748V12.026C8.26843 11.9741 8.25719 11.9228 8.23515 11.8759C8.21311 11.8289 8.18082 11.7875 8.14066 11.7547C8.1005 11.7218 8.05349 11.6984 8.00309 11.6862C7.95269 11.6739 7.90019 11.6731 7.84943 11.6838C7.3025 11.7827 6.74089 11.7653 6.2011 11.6329C5.6613 11.5005 5.15541 11.256 4.71631 10.9153C4.67764 10.8845 4.64587 10.8459 4.62309 10.802C4.6003 10.7582 4.587 10.71 4.58404 10.6607C4.58109 10.6113 4.58855 10.5619 4.60594 10.5156C4.62332 10.4694 4.65025 10.4273 4.68498 10.3921C5.1686 9.89654 5.68885 9.56032 5.92004 7.19359C6.02877 6.08046 5.79337 5.30938 6.09046 4.24104C6.16969 3.95617 6.57989 2.1133 8.21467 1.54933C9.39365 1.14265 10.4502 1.05496 11.3739 1.93365Z" fill="white"/>
</svg>
